<mxfile host="app.diagrams.net" modified="2023-05-16T11:58:19.876Z" agent="Mozilla/5.0 (Windows NT 10.0; Win64; x64) AppleWebKit/537.36 (KHTML, like Gecko) Chrome/113.0.0.0 Safari/537.36" etag="-8UnqWWF0Ny3PzAWSt3w" version="21.3.2" type="github">
  <diagram id="C5RBs43oDa-KdzZeNtuy" name="Page-1">
    <mxGraphModel dx="1366" dy="758" grid="1" gridSize="10" guides="1" tooltips="1" connect="1" arrows="1" fold="1" page="1" pageScale="1" pageWidth="827" pageHeight="1169" math="0" shadow="0">
      <root>
        <mxCell id="WIyWlLk6GJQsqaUBKTNV-0" />
        <mxCell id="WIyWlLk6GJQsqaUBKTNV-1" parent="WIyWlLk6GJQsqaUBKTNV-0" />
        <mxCell id="UEXLUlPenu7wnUoc71qz-4" value="YoutubeChannel" style="swimlane;fontStyle=1;align=center;verticalAlign=top;childLayout=stackLayout;horizontal=1;startSize=26;horizontalStack=0;resizeParent=1;resizeParentMax=0;resizeLast=0;collapsible=1;marginBottom=0;whiteSpace=wrap;html=1;" vertex="1" parent="WIyWlLk6GJQsqaUBKTNV-1">
          <mxGeometry x="50" y="40" width="210" height="580" as="geometry" />
        </mxCell>
        <mxCell id="UEXLUlPenu7wnUoc71qz-5" value="- channel_id: string&lt;br&gt;- title: string&lt;br&gt;- thumbnail: string&lt;br&gt;- subscriber_count: int&lt;br&gt;- last_published_video: string&lt;br&gt;- average_views: float&lt;br&gt;- average_likes: float&lt;br&gt;- average_comments: float&lt;br&gt;- relevance: float&lt;br&gt;- posting_frequency: string&lt;br&gt;- country: string&lt;br&gt;- instagram: string&lt;br&gt;- email: string&lt;br&gt;- topics: string&lt;br&gt;- scrape_date: string&lt;br&gt;- scrape_keyword: string&lt;br&gt;- videos: list&lt;br&gt;- custom_url: string&lt;br&gt;" style="text;strokeColor=none;fillColor=none;align=left;verticalAlign=top;spacingLeft=4;spacingRight=4;overflow=hidden;rotatable=0;points=[[0,0.5],[1,0.5]];portConstraint=eastwest;whiteSpace=wrap;html=1;" vertex="1" parent="UEXLUlPenu7wnUoc71qz-4">
          <mxGeometry y="26" width="210" height="274" as="geometry" />
        </mxCell>
        <mxCell id="UEXLUlPenu7wnUoc71qz-6" value="" style="line;strokeWidth=1;fillColor=none;align=left;verticalAlign=middle;spacingTop=-1;spacingLeft=3;spacingRight=3;rotatable=0;labelPosition=right;points=[];portConstraint=eastwest;strokeColor=inherit;" vertex="1" parent="UEXLUlPenu7wnUoc71qz-4">
          <mxGeometry y="300" width="210" height="8" as="geometry" />
        </mxCell>
        <mxCell id="UEXLUlPenu7wnUoc71qz-7" value="+&amp;nbsp;get_channel_id&lt;span style=&quot;background-color: initial;&quot;&gt;(): string&lt;br&gt;&lt;/span&gt;+&amp;nbsp;get_title(): string&lt;br&gt;+&amp;nbsp;get_thumbnail(): string&lt;br&gt;+&amp;nbsp;get_subscriber_count(): int&lt;br&gt;+&amp;nbsp;get_last_published_video(): string&lt;br&gt;+ get_average_views: float&lt;br&gt;+ get_average_likes: float&lt;br&gt;+ get_average_comments: float&lt;br&gt;+ get_relevance: float&lt;br&gt;+ get_posting_frequency: string&lt;br&gt;+ get_country: string&lt;br&gt;+ get_instagram: string&lt;br&gt;+ get_email: string&lt;br&gt;+ get_topics: string&lt;br&gt;+ get_scrape_date: string&lt;br&gt;+ get_scrape_keyword: string&lt;br&gt;+ get_videos: list&lt;br&gt;+ get_custom_url: string&lt;span style=&quot;background-color: initial;&quot;&gt;&amp;nbsp;&lt;/span&gt;" style="text;strokeColor=none;fillColor=none;align=left;verticalAlign=top;spacingLeft=4;spacingRight=4;overflow=hidden;rotatable=0;points=[[0,0.5],[1,0.5]];portConstraint=eastwest;whiteSpace=wrap;html=1;" vertex="1" parent="UEXLUlPenu7wnUoc71qz-4">
          <mxGeometry y="308" width="210" height="272" as="geometry" />
        </mxCell>
        <mxCell id="UEXLUlPenu7wnUoc71qz-9" value="YoutubeVideo&lt;br&gt;" style="swimlane;fontStyle=1;align=center;verticalAlign=top;childLayout=stackLayout;horizontal=1;startSize=26;horizontalStack=0;resizeParent=1;resizeParentMax=0;resizeLast=0;collapsible=1;marginBottom=0;whiteSpace=wrap;html=1;" vertex="1" parent="WIyWlLk6GJQsqaUBKTNV-1">
          <mxGeometry x="400" y="150" width="250" height="260" as="geometry" />
        </mxCell>
        <mxCell id="UEXLUlPenu7wnUoc71qz-10" value="- channel_id: string&lt;br&gt;- video_id: string&lt;br&gt;- title: string&lt;br&gt;- views: int&lt;br&gt;- likes: int&lt;br&gt;- date: string&lt;br&gt;- thumbnail: string" style="text;strokeColor=none;fillColor=none;align=left;verticalAlign=top;spacingLeft=4;spacingRight=4;overflow=hidden;rotatable=0;points=[[0,0.5],[1,0.5]];portConstraint=eastwest;whiteSpace=wrap;html=1;" vertex="1" parent="UEXLUlPenu7wnUoc71qz-9">
          <mxGeometry y="26" width="250" height="114" as="geometry" />
        </mxCell>
        <mxCell id="UEXLUlPenu7wnUoc71qz-11" value="" style="line;strokeWidth=1;fillColor=none;align=left;verticalAlign=middle;spacingTop=-1;spacingLeft=3;spacingRight=3;rotatable=0;labelPosition=right;points=[];portConstraint=eastwest;strokeColor=inherit;" vertex="1" parent="UEXLUlPenu7wnUoc71qz-9">
          <mxGeometry y="140" width="250" height="8" as="geometry" />
        </mxCell>
        <mxCell id="UEXLUlPenu7wnUoc71qz-12" value="+&amp;nbsp;get_channel_id(): string&lt;br&gt;+&amp;nbsp;get_video_id(): string&lt;br&gt;+&amp;nbsp;get_title(): string&lt;br&gt;+&amp;nbsp;get_views(): int&lt;br&gt;+&amp;nbsp;get_likes(): int&lt;br&gt;+&amp;nbsp;get_date(): string&lt;br&gt;+&amp;nbsp;get_thumbnail(): string" style="text;strokeColor=none;fillColor=none;align=left;verticalAlign=top;spacingLeft=4;spacingRight=4;overflow=hidden;rotatable=0;points=[[0,0.5],[1,0.5]];portConstraint=eastwest;whiteSpace=wrap;html=1;" vertex="1" parent="UEXLUlPenu7wnUoc71qz-9">
          <mxGeometry y="148" width="250" height="112" as="geometry" />
        </mxCell>
        <mxCell id="UEXLUlPenu7wnUoc71qz-14" value="" style="endArrow=none;html=1;edgeStyle=orthogonalEdgeStyle;rounded=0;entryX=0;entryY=0.065;entryDx=0;entryDy=0;entryPerimeter=0;exitX=0.997;exitY=0.894;exitDx=0;exitDy=0;exitPerimeter=0;" edge="1" parent="WIyWlLk6GJQsqaUBKTNV-1" source="UEXLUlPenu7wnUoc71qz-5" target="UEXLUlPenu7wnUoc71qz-9">
          <mxGeometry relative="1" as="geometry">
            <mxPoint x="261" y="280" as="sourcePoint" />
            <mxPoint x="390" y="311" as="targetPoint" />
          </mxGeometry>
        </mxCell>
        <mxCell id="UEXLUlPenu7wnUoc71qz-15" value="&amp;nbsp; 1" style="edgeLabel;resizable=0;html=1;align=left;verticalAlign=bottom;" connectable="0" vertex="1" parent="UEXLUlPenu7wnUoc71qz-14">
          <mxGeometry x="-1" relative="1" as="geometry" />
        </mxCell>
        <mxCell id="UEXLUlPenu7wnUoc71qz-16" value="*&amp;nbsp;&amp;nbsp;" style="edgeLabel;resizable=0;html=1;align=right;verticalAlign=bottom;" connectable="0" vertex="1" parent="UEXLUlPenu7wnUoc71qz-14">
          <mxGeometry x="1" relative="1" as="geometry" />
        </mxCell>
        <mxCell id="UEXLUlPenu7wnUoc71qz-18" value="YouTubeAPI" style="swimlane;fontStyle=1;align=center;verticalAlign=top;childLayout=stackLayout;horizontal=1;startSize=26;horizontalStack=0;resizeParent=1;resizeParentMax=0;resizeLast=0;collapsible=1;marginBottom=0;whiteSpace=wrap;html=1;" vertex="1" parent="WIyWlLk6GJQsqaUBKTNV-1">
          <mxGeometry x="760" y="208" width="270" height="86" as="geometry" />
        </mxCell>
        <mxCell id="UEXLUlPenu7wnUoc71qz-19" value="- youtube_api_service:&amp;nbsp;googleapiclient.discovery" style="text;strokeColor=none;fillColor=none;align=left;verticalAlign=top;spacingLeft=4;spacingRight=4;overflow=hidden;rotatable=0;points=[[0,0.5],[1,0.5]];portConstraint=eastwest;whiteSpace=wrap;html=1;" vertex="1" parent="UEXLUlPenu7wnUoc71qz-18">
          <mxGeometry y="26" width="270" height="26" as="geometry" />
        </mxCell>
        <mxCell id="UEXLUlPenu7wnUoc71qz-20" value="" style="line;strokeWidth=1;fillColor=none;align=left;verticalAlign=middle;spacingTop=-1;spacingLeft=3;spacingRight=3;rotatable=0;labelPosition=right;points=[];portConstraint=eastwest;strokeColor=inherit;" vertex="1" parent="UEXLUlPenu7wnUoc71qz-18">
          <mxGeometry y="52" width="270" height="8" as="geometry" />
        </mxCell>
        <mxCell id="UEXLUlPenu7wnUoc71qz-21" value="+ method(type): type" style="text;strokeColor=none;fillColor=none;align=left;verticalAlign=top;spacingLeft=4;spacingRight=4;overflow=hidden;rotatable=0;points=[[0,0.5],[1,0.5]];portConstraint=eastwest;whiteSpace=wrap;html=1;" vertex="1" parent="UEXLUlPenu7wnUoc71qz-18">
          <mxGeometry y="60" width="270" height="26" as="geometry" />
        </mxCell>
      </root>
    </mxGraphModel>
  </diagram>
</mxfile>
